<svg xmlns="http://www.w3.org/2000/svg" viewBox="0 0 220 160" role="img" aria-label="UFPB">
  <g transform="translate(72 12)">
    <path d="M38 0l31 18v44c0 30-18 50-31 58C25 112 7 92 7 62V18L38 0z" fill="#0759ad" stroke="#111" stroke-width="4"/>
    <path d="M18 30c18 8 28 25 40 36" fill="none" stroke="#fff" stroke-width="8"/>
    <path d="M29 83c9 10 19 10 28 0" fill="none" stroke="#ffb000" stroke-width="7" stroke-linecap="round"/>
    <path d="M38 35v50" stroke="#ffb000" stroke-width="7" stroke-linecap="round"/>
    <circle cx="22" cy="44" r="4" fill="#fff"/>
    <circle cx="55" cy="44" r="4" fill="#fff"/>
    <circle cx="38" cy="59" r="4" fill="#fff"/>
    <path d="M23 8v-8M38 8v-8M53 8v-8" stroke="#ff6b00" stroke-width="8" stroke-linecap="round"/>
  </g>
  <text x="38" y="148" font-family="Arial, Helvetica, sans-serif" font-size="44" font-weight="800" fill="#111">UFPB</text>
</svg>
